<svg width="249" height="35" viewBox="0 0 249 35" fill="none" xmlns="http://www.w3.org/2000/svg">
<path d="M8.96662 34.2683C7.22656 34.2683 5.68182 33.9783 4.33238 33.3983C2.99479 32.8064 1.93537 31.9186 1.15412 30.7349C0.384704 29.5394 -2.68966e-06 28.042 -2.68966e-06 26.2427C-2.68966e-06 24.7276 0.266333 23.4492 0.799003 22.4075C1.33167 21.3658 2.06557 20.5195 3.00071 19.8684C3.93584 19.2174 5.01302 18.7261 6.23224 18.3947C7.45147 18.0514 8.75355 17.8206 10.1385 17.7022C11.6892 17.5602 12.938 17.4122 13.8849 17.2583C14.8319 17.0926 15.5185 16.8618 15.9446 16.5659C16.3826 16.2581 16.6016 15.8261 16.6016 15.2697V15.1809C16.6016 14.2695 16.2879 13.5652 15.6605 13.068C15.0331 12.5708 14.1868 12.3223 13.1214 12.3223C11.9732 12.3223 11.05 12.5708 10.3516 13.068C9.65317 13.5652 9.20928 14.2517 9.01988 15.1277L1.01207 14.8436C1.24881 13.1864 1.85843 11.7067 2.84091 10.4047C3.83522 9.09073 5.19649 8.0609 6.92471 7.31516C8.66477 6.55759 10.754 6.1788 13.1925 6.1788C14.9325 6.1788 16.5365 6.38595 18.0043 6.80025C19.4721 7.20271 20.7505 7.79457 21.8395 8.57582C22.9285 9.34523 23.7689 10.2922 24.3608 11.4167C24.9645 12.5413 25.2663 13.8256 25.2663 15.2697V33.8066H17.0987V30.0069H16.8857C16.4003 30.9302 15.7789 31.7115 15.0213 32.3507C14.2756 32.9899 13.3937 33.4693 12.3757 33.7889C11.3696 34.1085 10.2332 34.2683 8.96662 34.2683ZM11.6477 28.5865C12.5829 28.5865 13.4233 28.3971 14.169 28.0183C14.9266 27.6395 15.5303 27.1187 15.9801 26.4558C16.4299 25.7811 16.6548 24.9998 16.6548 24.112V21.5197C16.4062 21.6499 16.1044 21.7683 15.7493 21.8748C15.406 21.9814 15.0272 22.082 14.6129 22.1767C14.1986 22.2714 13.7725 22.3542 13.3345 22.4252C12.8965 22.4963 12.4763 22.5614 12.0739 22.6206C11.2571 22.7508 10.5587 22.952 9.97869 23.2243C9.41051 23.4965 8.97254 23.8516 8.66477 24.2896C8.36884 24.7157 8.22088 25.2247 8.22088 25.8166C8.22088 26.7162 8.54048 27.4028 9.17968 27.8762C9.83073 28.3497 10.6534 28.5865 11.6477 28.5865ZM43.3061 34.3216C40.4297 34.3216 37.9616 33.7297 35.902 32.546C33.8542 31.3623 32.2798 29.7169 31.179 27.6099C30.0781 25.4911 29.5277 23.0408 29.5277 20.2591C29.5277 17.4655 30.0781 15.0152 31.179 12.9082C32.2917 10.7894 33.8719 9.13808 35.9197 7.95437C37.9794 6.77066 40.4356 6.1788 43.2884 6.1788C45.8097 6.1788 48.0054 6.63453 49.8757 7.54599C51.7578 8.45744 53.2256 9.74769 54.2791 11.4167C55.3445 13.0739 55.9067 15.0211 55.9659 17.2583H47.8516C47.6858 15.8616 47.2124 14.7666 46.4311 13.9735C45.6617 13.1805 44.6555 12.7839 43.4126 12.7839C42.4065 12.7839 41.5246 13.068 40.767 13.6362C40.0095 14.1925 39.4176 15.0211 38.9915 16.122C38.5772 17.211 38.37 18.5604 38.37 20.1703C38.37 21.7801 38.5772 23.1414 38.9915 24.2541C39.4176 25.3549 40.0095 26.1895 40.767 26.7576C41.5246 27.314 42.4065 27.5922 43.4126 27.5922C44.2176 27.5922 44.9278 27.4205 45.5433 27.0772C46.1707 26.734 46.6856 26.2309 47.0881 25.568C47.4905 24.8933 47.745 24.0765 47.8516 23.1177H55.9659C55.883 25.3668 55.3208 27.3317 54.2791 29.0126C53.2493 30.6935 51.7992 32.0015 49.929 32.9366C48.0705 33.8599 45.8629 34.3216 43.3061 34.3216ZM73.1401 34.3216C70.2637 34.3216 67.7956 33.7297 65.736 32.546C63.6881 31.3623 62.1138 29.7169 61.013 27.6099C59.9121 25.4911 59.3617 23.0408 59.3617 20.2591C59.3617 17.4655 59.9121 15.0152 61.013 12.9082C62.1256 10.7894 63.7059 9.13808 65.7537 7.95437C67.8134 6.77066 70.2696 6.1788 73.1223 6.1788C75.6436 6.1788 77.8394 6.63453 79.7097 7.54599C81.5918 8.45744 83.0596 9.74769 84.1131 11.4167C85.1784 13.0739 85.7407 15.0211 85.7999 17.2583H77.6855C77.5198 15.8616 77.0463 14.7666 76.2651 13.9735C75.4957 13.1805 74.4895 12.7839 73.2466 12.7839C72.2405 12.7839 71.3586 13.068 70.601 13.6362C69.8435 14.1925 69.2516 15.0211 68.8255 16.122C68.4112 17.211 68.204 18.5604 68.204 20.1703C68.204 21.7801 68.4112 23.1414 68.8255 24.2541C69.2516 25.3549 69.8435 26.1895 70.601 26.7576C71.3586 27.314 72.2405 27.5922 73.2466 27.5922C74.0515 27.5922 74.7618 27.4205 75.3773 27.0772C76.0047 26.734 76.5196 26.2309 76.9221 25.568C77.3245 24.8933 77.579 24.0765 77.6855 23.1177H85.7999C85.717 25.3668 85.1548 27.3317 84.1131 29.0126C83.0833 30.6935 81.6332 32.0015 79.763 32.9366C77.9045 33.8599 75.6969 34.3216 73.1401 34.3216ZM102.992 34.3216C100.139 34.3216 97.677 33.7593 95.6055 32.6348C93.5458 31.4984 91.9596 29.8826 90.8469 27.7875C89.7461 25.6805 89.1957 23.1769 89.1957 20.2768C89.1957 17.4596 89.752 14.9975 90.8647 12.8904C91.9774 10.7716 93.5458 9.12624 95.57 7.95437C97.5941 6.77066 99.9793 6.1788 102.725 6.1788C104.667 6.1788 106.442 6.48065 108.052 7.08434C109.662 7.68803 111.053 8.58173 112.225 9.76545C113.397 10.9492 114.308 12.411 114.959 14.1511C115.61 15.8793 115.936 17.862 115.936 20.0993V22.2654H92.2319V17.2228H107.857C107.845 16.2995 107.626 15.4769 107.2 14.7548C106.774 14.0327 106.188 13.4705 105.442 13.068C104.708 12.6537 103.862 12.4466 102.903 12.4466C101.932 12.4466 101.062 12.6655 100.293 13.1035C99.5236 13.5297 98.9139 14.1156 98.4641 14.8613C98.0143 15.5952 97.7776 16.4297 97.7539 17.3649V22.4963C97.7539 23.609 97.9729 24.5855 98.4109 25.426C98.8488 26.2546 99.4703 26.8997 100.275 27.3613C101.08 27.823 102.039 28.0538 103.152 28.0538C103.921 28.0538 104.619 27.9473 105.247 27.7342C105.874 27.5211 106.413 27.2074 106.863 26.7931C107.312 26.3788 107.65 25.8699 107.875 25.2662L115.847 25.497C115.516 27.2844 114.788 28.841 113.663 30.1667C112.55 31.4806 111.088 32.5046 109.277 33.2385C107.466 33.9605 105.371 34.3216 102.992 34.3216ZM129.053 18.2527V33.8066H120.37V6.53391H128.627V11.541H128.928C129.532 9.87198 130.562 8.56398 132.018 7.61701C133.474 6.6582 135.208 6.1788 137.22 6.1788C139.138 6.1788 140.801 6.61085 142.21 7.47496C143.63 8.32724 144.731 9.52278 145.512 11.0616C146.305 12.5886 146.696 14.376 146.684 16.4238V33.8066H138.002V18.1284C138.013 16.6132 137.629 15.4295 136.847 14.5772C136.078 13.725 135.007 13.2988 133.634 13.2988C132.722 13.2988 131.917 13.5001 131.219 13.9025C130.532 14.2931 130 14.8554 129.621 15.5893C129.254 16.3232 129.065 17.211 129.053 18.2527ZM167.454 6.53391V12.926H150.249V6.53391H167.454ZM153.853 -0.000178099H162.536V25.2306C162.536 25.7633 162.618 26.1954 162.784 26.5268C162.962 26.8464 163.216 27.0772 163.548 27.2193C163.879 27.3495 164.276 27.4146 164.737 27.4146C165.069 27.4146 165.418 27.385 165.785 27.3258C166.164 27.2548 166.448 27.1956 166.637 27.1483L167.951 33.416C167.537 33.5344 166.951 33.6824 166.193 33.8599C165.447 34.0375 164.554 34.1499 163.512 34.1973C161.476 34.292 159.73 34.0552 158.274 33.487C156.83 32.907 155.723 32.0074 154.954 30.7882C154.196 29.569 153.829 28.036 153.853 26.1895V-0.000178099ZM189.48 22.0346V6.53391H198.145V33.8066H189.87V28.7285H189.586C188.983 30.3975 187.953 31.7233 186.497 32.7058C185.053 33.6764 183.307 34.1618 181.259 34.1618C179.4 34.1618 177.767 33.7356 176.358 32.8833C174.95 32.0311 173.855 30.8414 173.074 29.3145C172.292 27.7756 171.896 25.9764 171.884 23.9167V6.53391H180.566V22.2122C180.578 23.6918 180.969 24.8578 181.738 25.71C182.508 26.5623 183.555 26.9885 184.881 26.9885C185.745 26.9885 186.52 26.7991 187.207 26.4203C187.905 26.0297 188.456 25.4674 188.858 24.7335C189.273 23.9877 189.48 23.0881 189.48 22.0346ZM203.671 33.8066V6.53391H212.105V11.5055H212.389C212.886 9.70626 213.697 8.36867 214.822 7.49272C215.946 6.60494 217.254 6.16104 218.746 6.16104C219.148 6.16104 219.562 6.19064 219.988 6.24982C220.415 6.29717 220.811 6.37411 221.178 6.48065V14.0268C220.764 13.8848 220.219 13.7723 219.545 13.6895C218.882 13.6066 218.29 13.5652 217.769 13.5652C216.739 13.5652 215.81 13.796 214.981 14.2576C214.165 14.7074 213.519 15.3407 213.046 16.1575C212.584 16.9624 212.354 17.9094 212.354 18.9984V33.8066H203.671ZM236.048 34.3216C233.196 34.3216 230.734 33.7593 228.662 32.6348C226.602 31.4984 225.016 29.8826 223.904 27.7875C222.803 25.6805 222.252 23.1769 222.252 20.2768C222.252 17.4596 222.809 14.9975 223.921 12.8904C225.034 10.7716 226.602 9.12624 228.627 7.95437C230.651 6.77066 233.036 6.1788 235.782 6.1788C237.723 6.1788 239.499 6.48065 241.109 7.08434C242.719 7.68803 244.11 8.58173 245.281 9.76545C246.453 10.9492 247.365 12.411 248.016 14.1511C248.667 15.8793 248.992 17.862 248.992 20.0993V22.2654H225.289V17.2228H240.914C240.902 16.2995 240.683 15.4769 240.257 14.7548C239.83 14.0327 239.244 13.4705 238.499 13.068C237.765 12.6537 236.918 12.4466 235.96 12.4466C234.989 12.4466 234.119 12.6655 233.35 13.1035C232.58 13.5297 231.971 14.1156 231.521 14.8613C231.071 15.5952 230.834 16.4297 230.811 17.3649V22.4963C230.811 23.609 231.03 24.5855 231.468 25.426C231.905 26.2546 232.527 26.8997 233.332 27.3613C234.137 27.823 235.096 28.0538 236.208 28.0538C236.978 28.0538 237.676 27.9473 238.303 27.7342C238.931 27.5211 239.469 27.2074 239.919 26.7931C240.369 26.3788 240.706 25.8699 240.931 25.2662L248.904 25.497C248.572 27.2844 247.844 28.841 246.72 30.1667C245.607 31.4806 244.145 32.5046 242.334 33.2385C240.523 33.9605 238.428 34.3216 236.048 34.3216Z" fill="#7A7A7A"/>
</svg>
