<svg width="317" height="50" viewBox="0 0 317 50" fill="none" xmlns="http://www.w3.org/2000/svg">
<path d="M5.56558e-05 38.7432V2.37953H15.1634C17.8859 2.37953 20.1646 2.76423 21.9993 3.53365C23.8459 4.30306 25.2309 5.38024 26.1542 6.76518C27.0893 8.15012 27.5569 9.75405 27.5569 11.577C27.5569 12.9619 27.2669 14.1989 26.6868 15.2879C26.1068 16.3651 25.3078 17.2588 24.2898 17.969C23.2718 18.6792 22.094 19.1764 20.7564 19.4605V19.8156C22.2243 19.8866 23.5796 20.2832 24.8225 21.0052C26.0772 21.7273 27.0834 22.7335 27.841 24.0237C28.5985 25.3021 28.9773 26.8173 28.9773 28.5692C28.9773 30.5223 28.4802 32.2683 27.4859 33.8071C26.4915 35.3341 25.0533 36.5415 23.1712 37.4292C21.2891 38.3052 19.0046 38.7432 16.3175 38.7432H5.56558e-05ZM8.78912 31.6586H14.2224C16.1281 31.6586 17.5308 31.2976 18.4305 30.5756C19.3419 29.8535 19.7976 28.8473 19.7976 27.5571C19.7976 26.622 19.5787 25.817 19.1407 25.1423C18.7027 24.4558 18.0813 23.929 17.2763 23.5621C16.4714 23.1833 15.5067 22.9939 14.3822 22.9939H8.78912V31.6586ZM8.78912 17.3298H13.6542C14.613 17.3298 15.4653 17.17 16.211 16.8504C16.9567 16.5308 17.5368 16.0692 17.951 15.4655C18.3772 14.8618 18.5903 14.1338 18.5903 13.2815C18.5903 12.0623 18.1582 11.1035 17.2941 10.4051C16.43 9.70671 15.264 9.35751 13.7962 9.35751H8.78912V17.3298ZM45.9518 39.2581C43.099 39.2581 40.6369 38.6958 38.5654 37.5713C36.5057 36.4349 34.9196 34.8192 33.8069 32.724C32.706 30.617 32.1556 28.1134 32.1556 25.2133C32.1556 22.3961 32.7119 19.934 33.8246 17.827C34.9373 15.7081 36.5057 14.0628 38.5299 12.8909C40.554 11.7072 42.9392 11.1153 45.6854 11.1153C47.6267 11.1153 49.4023 11.4172 51.0121 12.0209C52.622 12.6246 54.0128 13.5183 55.1847 14.702C56.3566 15.8857 57.268 17.3476 57.9191 19.0876C58.5701 20.8158 58.8957 22.7986 58.8957 25.0358V27.202H35.1918V22.1594H50.8168C50.805 21.2361 50.586 20.4134 50.1599 19.6913C49.7337 18.9693 49.1478 18.407 48.402 18.0045C47.6681 17.5902 46.8218 17.3831 45.863 17.3831C44.8923 17.3831 44.0223 17.6021 43.2529 18.04C42.4835 18.4662 41.8739 19.0521 41.4241 19.7979C40.9743 20.5318 40.7375 21.3663 40.7138 22.3014V27.4328C40.7138 28.5455 40.9328 29.522 41.3708 30.3625C41.8088 31.1911 42.4302 31.8362 43.2351 32.2979C44.0401 32.7595 44.9989 32.9903 46.1116 32.9903C46.881 32.9903 47.5794 32.8838 48.2067 32.6707C48.8341 32.4577 49.3727 32.144 49.8225 31.7297C50.2723 31.3154 50.6097 30.8064 50.8346 30.2027L58.8069 30.4335C58.4754 32.2209 57.7475 33.7775 56.6229 35.1032C55.5102 36.4172 54.0484 37.4411 52.2373 38.175C50.4262 38.897 48.331 39.2581 45.9518 39.2581ZM71.0183 39.2048C69.2783 39.2048 67.7335 38.9148 66.3841 38.3348C65.0465 37.7429 63.9871 36.8551 63.2058 35.6714C62.4364 34.4759 62.0517 32.9785 62.0517 31.1792C62.0517 29.6641 62.3181 28.3857 62.8507 27.344C63.3834 26.3023 64.1173 25.456 65.0524 24.805C65.9876 24.1539 67.0647 23.6627 68.284 23.3312C69.5032 22.988 70.8053 22.7571 72.1902 22.6388C73.7409 22.4967 74.9897 22.3488 75.9367 22.1949C76.8836 22.0291 77.5702 21.7983 77.9963 21.5024C78.4343 21.1946 78.6533 20.7626 78.6533 20.2062V20.1175C78.6533 19.206 78.3396 18.5017 77.7122 18.0045C77.0849 17.5074 76.2385 17.2588 75.1732 17.2588C74.025 17.2588 73.1017 17.5074 72.4033 18.0045C71.7049 18.5017 71.261 19.1882 71.0716 20.0642L63.0638 19.7801C63.3005 18.1229 63.9102 16.6433 64.8926 15.3412C65.887 14.0273 67.2482 12.9974 68.9764 12.2517C70.7165 11.4941 72.8057 11.1153 75.2442 11.1153C76.9843 11.1153 78.5882 11.3225 80.056 11.7368C81.5238 12.1392 82.8022 12.7311 83.8912 13.5123C84.9802 14.2818 85.8207 15.2287 86.4125 16.3532C87.0162 17.4778 87.3181 18.7621 87.3181 20.2062V38.7432H79.1504V34.9434H78.9374C78.4521 35.8667 77.8306 36.648 77.073 37.2872C76.3273 37.9264 75.4454 38.4058 74.4274 38.7254C73.4213 39.045 72.2849 39.2048 71.0183 39.2048ZM73.6995 33.523C74.6346 33.523 75.475 33.3336 76.2208 32.9548C76.9783 32.576 77.582 32.0552 78.0318 31.3923C78.4816 30.7176 78.7066 29.9363 78.7066 29.0486V26.4562C78.458 26.5864 78.1561 26.7048 77.801 26.8113C77.4577 26.9179 77.079 27.0185 76.6647 27.1132C76.2504 27.2079 75.8242 27.2907 75.3862 27.3618C74.9483 27.4328 74.5281 27.4979 74.1256 27.5571C73.3088 27.6873 72.6104 27.8885 72.0304 28.1608C71.4622 28.433 71.0243 28.7881 70.7165 29.2261C70.4206 29.6523 70.2726 30.1613 70.2726 30.7531C70.2726 31.6527 70.5922 32.3393 71.2314 32.8128C71.8825 33.2863 72.7051 33.523 73.6995 33.523ZM92.627 38.7432V11.4704H101.061V16.442H101.345C101.842 14.6428 102.653 13.3052 103.778 12.4292C104.902 11.5415 106.21 11.0976 107.702 11.0976C108.104 11.0976 108.518 11.1272 108.944 11.1863C109.371 11.2337 109.767 11.3106 110.134 11.4172V18.9633C109.72 18.8213 109.175 18.7088 108.501 18.626C107.838 18.5431 107.246 18.5017 106.725 18.5017C105.695 18.5017 104.766 18.7325 103.937 19.1942C103.121 19.644 102.475 20.2773 102.002 21.094C101.54 21.8989 101.31 22.8459 101.31 23.9349V38.7432H92.627ZM113.672 38.7432V11.4704H122.354V38.7432H113.672ZM118.022 8.29217C116.803 8.29217 115.755 7.88971 114.879 7.08478C114.003 6.26802 113.565 5.28554 113.565 4.13734C113.565 3.00097 114.003 2.03033 114.879 1.22541C115.755 0.408645 116.803 0.000264168 118.022 0.000264168C119.253 0.000264168 120.301 0.408645 121.165 1.22541C122.041 2.03033 122.479 3.00097 122.479 4.13734C122.479 5.28554 122.041 6.26802 121.165 7.08478C120.301 7.88971 119.253 8.29217 118.022 8.29217ZM136.563 23.1892V38.7432H127.881V11.4704H136.137V16.4775H136.439C137.043 14.8085 138.073 13.5005 139.529 12.5535C140.985 11.5947 142.719 11.1153 144.731 11.1153C146.649 11.1153 148.312 11.5474 149.72 12.4115C151.141 13.2638 152.242 14.4593 153.023 15.9981C153.816 17.5251 154.207 19.3125 154.195 21.3604V38.7432H145.512V23.0649C145.524 21.5497 145.139 20.366 144.358 19.5138C143.589 18.6615 142.518 18.2354 141.144 18.2354C140.233 18.2354 139.428 18.4366 138.73 18.839C138.043 19.2297 137.51 19.7919 137.132 20.5258C136.765 21.2597 136.575 22.1475 136.563 23.1892ZM172.283 49.5386C169.691 49.5386 167.472 49.1776 165.625 48.4555C163.778 47.7335 162.328 46.7451 161.275 45.4903C160.221 44.2356 159.588 42.8151 159.375 41.229L167.596 40.7673C167.75 41.3237 168.034 41.809 168.448 42.2233C168.874 42.6376 169.425 42.9572 170.099 43.1821C170.786 43.407 171.591 43.5194 172.514 43.5194C173.97 43.5194 175.172 43.1643 176.119 42.4541C177.077 41.7557 177.557 40.5306 177.557 38.7787V33.9846H177.255C176.912 34.8251 176.391 35.5767 175.693 36.2396C174.994 36.9025 174.124 37.4233 173.082 37.8021C172.053 38.1809 170.869 38.3703 169.531 38.3703C167.543 38.3703 165.72 37.9086 164.063 36.9854C162.417 36.0502 161.097 34.6061 160.103 32.653C159.121 30.688 158.629 28.1608 158.629 25.0713C158.629 21.8871 159.138 19.2652 160.156 17.2055C161.174 15.134 162.506 13.6011 164.151 12.6068C165.809 11.6125 167.59 11.1153 169.496 11.1153C170.928 11.1153 172.153 11.3639 173.171 11.8611C174.201 12.3464 175.047 12.9738 175.71 13.7432C176.373 14.5126 176.876 15.3116 177.22 16.1402H177.468V11.4704H186.115V38.8497C186.115 41.1579 185.535 43.1051 184.375 44.6913C183.215 46.2775 181.593 47.479 179.51 48.2957C177.427 49.1243 175.018 49.5386 172.283 49.5386ZM172.55 32.0493C173.603 32.0493 174.503 31.7711 175.249 31.2148C175.994 30.6584 176.568 29.8594 176.971 28.8177C177.373 27.7761 177.575 26.5273 177.575 25.0713C177.575 23.5916 177.373 22.3192 176.971 21.2538C176.58 20.1766 176.006 19.348 175.249 18.768C174.503 18.188 173.603 17.898 172.55 17.898C171.473 17.898 170.561 18.1939 169.815 18.7858C169.07 19.3776 168.501 20.2122 168.111 21.2893C167.732 22.3547 167.543 23.6153 167.543 25.0713C167.543 26.5273 167.738 27.7761 168.129 28.8177C168.519 29.8594 169.081 30.6584 169.815 31.2148C170.561 31.7711 171.473 32.0493 172.55 32.0493ZM191.65 38.7432V2.37953H206.672C209.394 2.37953 211.744 2.9122 213.721 3.97754C215.709 5.03104 217.242 6.50476 218.319 8.3987C219.397 10.2808 219.935 12.4707 219.935 14.9683C219.935 17.4778 219.385 19.6736 218.284 21.5557C217.195 23.4259 215.638 24.876 213.614 25.9058C211.59 26.9356 209.187 27.4506 206.405 27.4506H197.137V20.5258H204.772C206.098 20.5258 207.204 20.295 208.092 19.8334C208.992 19.3717 209.672 18.7266 210.134 17.898C210.596 17.0576 210.827 16.081 210.827 14.9683C210.827 13.8438 210.596 12.8731 210.134 12.0564C209.672 11.2278 208.992 10.5886 208.092 10.1388C207.193 9.68895 206.086 9.46405 204.772 9.46405H200.44V38.7432H191.65ZM236.461 39.2581C233.597 39.2581 231.135 38.6721 229.075 37.5003C227.027 36.3166 225.447 34.6712 224.334 32.5642C223.233 30.4453 222.683 27.9891 222.683 25.1956C222.683 22.3902 223.233 19.934 224.334 17.827C225.447 15.7081 227.027 14.0628 229.075 12.8909C231.135 11.7072 233.597 11.1153 236.461 11.1153C239.326 11.1153 241.782 11.7072 243.83 12.8909C245.89 14.0628 247.47 15.7081 248.571 17.827C249.683 19.934 250.24 22.3902 250.24 25.1956C250.24 27.9891 249.683 30.4453 248.571 32.5642C247.47 34.6712 245.89 36.3166 243.83 37.5003C241.782 38.6721 239.326 39.2581 236.461 39.2581ZM236.515 32.7062C237.556 32.7062 238.438 32.3866 239.16 31.7474C239.882 31.1082 240.433 30.2204 240.811 29.0841C241.202 27.9477 241.397 26.6338 241.397 25.1423C241.397 23.6272 241.202 22.3014 240.811 21.165C240.433 20.0287 239.882 19.1409 239.16 18.5017C238.438 17.8625 237.556 17.5429 236.515 17.5429C235.437 17.5429 234.526 17.8625 233.78 18.5017C233.046 19.1409 232.484 20.0287 232.093 21.165C231.715 22.3014 231.525 23.6272 231.525 25.1423C231.525 26.6338 231.715 27.9477 232.093 29.0841C232.484 30.2204 233.046 31.1082 233.78 31.7474C234.526 32.3866 235.437 32.7062 236.515 32.7062ZM254.688 38.7432V11.4704H263.37V38.7432H254.688ZM259.038 8.29217C257.818 8.29217 256.771 7.88971 255.895 7.08478C255.019 6.26802 254.581 5.28554 254.581 4.13734C254.581 3.00097 255.019 2.03033 255.895 1.22541C256.771 0.408645 257.818 0.000264168 259.038 0.000264168C260.269 0.000264168 261.316 0.408645 262.18 1.22541C263.056 2.03033 263.494 3.00097 263.494 4.13734C263.494 5.28554 263.056 6.26802 262.18 7.08478C261.316 7.88971 260.269 8.29217 259.038 8.29217ZM277.579 23.1892V38.7432H268.897V11.4704H277.153V16.4775H277.455C278.058 14.8085 279.088 13.5005 280.544 12.5535C282 11.5947 283.734 11.1153 285.747 11.1153C287.664 11.1153 289.327 11.5474 290.736 12.4115C292.156 13.2638 293.257 14.4593 294.039 15.9981C294.832 17.5251 295.222 19.3125 295.21 21.3604V38.7432H286.528V23.0649C286.54 21.5497 286.155 20.366 285.374 19.5138C284.604 18.6615 283.533 18.2354 282.16 18.2354C281.249 18.2354 280.444 18.4366 279.745 18.839C279.059 19.2297 278.526 19.7919 278.147 20.5258C277.78 21.2597 277.591 22.1475 277.579 23.1892ZM315.98 11.4704V17.8625H298.775V11.4704H315.98ZM302.379 4.93635H311.062V30.1672C311.062 30.6998 311.145 31.1319 311.31 31.4633C311.488 31.7829 311.742 32.0138 312.074 32.1558C312.405 32.286 312.802 32.3511 313.264 32.3511C313.595 32.3511 313.944 32.3215 314.311 32.2623C314.69 32.1913 314.974 32.1321 315.163 32.0848L316.477 38.3525C316.063 38.4709 315.477 38.6189 314.72 38.7964C313.974 38.974 313.08 39.0864 312.038 39.1338C310.002 39.2285 308.256 38.9917 306.8 38.4236C305.356 37.8435 304.25 36.9439 303.48 35.7247C302.723 34.5055 302.356 32.9726 302.379 31.126V4.93635Z" fill="#7A7A7A"/>
</svg>
