<svg width="173" height="48" viewBox="0 0 173 48" fill="none" xmlns="http://www.w3.org/2000/svg">
<path d="M24.2543 12.3753C24.0531 11.6295 23.7572 10.9726 23.3665 10.4044C22.9759 9.82437 22.4965 9.33313 21.9283 8.93066C21.3601 8.5282 20.7091 8.22635 19.9752 8.02512C19.2413 7.81205 18.4364 7.70552 17.5604 7.70552C15.7967 7.70552 14.2697 8.13166 12.9795 8.98393C11.701 9.8362 10.7127 11.0791 10.0143 12.7126C9.31587 14.3343 8.96667 16.3052 8.96667 18.6253C8.96667 20.9572 9.30403 22.9458 9.97875 24.5912C10.6535 26.2365 11.63 27.4913 12.9084 28.3554C14.1868 29.2195 15.7375 29.6515 17.5604 29.6515C19.1703 29.6515 20.5315 29.3911 21.6442 28.8703C22.7688 28.3376 23.621 27.586 24.201 26.6153C24.7811 25.6447 25.0711 24.5024 25.0711 23.1885L26.7046 23.3838H17.8623V16.974H33.5405V21.7858C33.5405 25.041 32.8481 27.8286 31.4631 30.1487C30.09 32.4688 28.1961 34.2503 25.7813 35.4932C23.3784 36.7361 20.6144 37.3575 17.4894 37.3575C14.0211 37.3575 10.9731 36.6059 8.34523 35.1025C5.71739 33.5992 3.66956 31.4567 2.20176 28.675C0.733957 25.8814 5.54696e-05 22.567 5.54696e-05 18.7318C5.54696e-05 15.7488 0.443948 13.1032 1.33173 10.795C2.21952 8.47493 3.4565 6.50997 5.04267 4.90012C6.64068 3.29028 8.48727 2.07105 10.5824 1.24245C12.6895 0.413854 14.9563 -0.000445247 17.3829 -0.000445247C19.4899 -0.000445247 21.4489 0.301402 23.26 0.905095C25.0829 1.50879 26.6928 2.36106 28.0895 3.46191C29.4982 4.56277 30.6404 5.87077 31.5164 7.38592C32.3923 8.90107 32.9368 10.5642 33.1499 12.3753H24.2543ZM51.4516 37.3753C48.587 37.3753 46.1249 36.7893 44.0652 35.6175C42.0174 34.4337 40.4371 32.7884 39.3245 30.6814C38.2236 28.5625 37.6732 26.1063 37.6732 23.3128C37.6732 20.5074 38.2236 18.0512 39.3245 15.9442C40.4371 13.8253 42.0174 12.18 44.0652 11.0081C46.1249 9.82437 48.587 9.23251 51.4516 9.23251C54.3162 9.23251 56.7724 9.82437 58.8202 11.0081C60.8799 12.18 62.4601 13.8253 63.561 15.9442C64.6736 18.0512 65.23 20.5074 65.23 23.3128C65.23 26.1063 64.6736 28.5625 63.561 30.6814C62.4601 32.7884 60.8799 34.4337 58.8202 35.6175C56.7724 36.7893 54.3162 37.3753 51.4516 37.3753ZM51.5048 30.8234C52.5465 30.8234 53.4284 30.5038 54.1504 29.8646C54.8725 29.2254 55.4229 28.3376 55.8017 27.2013C56.1923 26.0649 56.3877 24.751 56.3877 23.2595C56.3877 21.7443 56.1923 20.4186 55.8017 19.2822C55.4229 18.1459 54.8725 17.2581 54.1504 16.6189C53.4284 15.9797 52.5465 15.6601 51.5048 15.6601C50.4277 15.6601 49.5162 15.9797 48.7705 16.6189C48.0366 17.2581 47.4743 18.1459 47.0837 19.2822C46.7049 20.4186 46.5155 21.7443 46.5155 23.2595C46.5155 24.751 46.7049 26.0649 47.0837 27.2013C47.4743 28.3376 48.0366 29.2254 48.7705 29.8646C49.5162 30.5038 50.4277 30.8234 51.5048 30.8234ZM82.4086 37.3753C79.544 37.3753 77.0819 36.7893 75.0223 35.6175C72.9744 34.4337 71.3942 32.7884 70.2815 30.6814C69.1806 28.5625 68.6302 26.1063 68.6302 23.3128C68.6302 20.5074 69.1806 18.0512 70.2815 15.9442C71.3942 13.8253 72.9744 12.18 75.0223 11.0081C77.0819 9.82437 79.544 9.23251 82.4086 9.23251C85.2732 9.23251 87.7294 9.82437 89.7772 11.0081C91.8369 12.18 93.4171 13.8253 94.518 15.9442C95.6307 18.0512 96.187 20.5074 96.187 23.3128C96.187 26.1063 95.6307 28.5625 94.518 30.6814C93.4171 32.7884 91.8369 34.4337 89.7772 35.6175C87.7294 36.7893 85.2732 37.3753 82.4086 37.3753ZM82.4619 30.8234C83.5035 30.8234 84.3854 30.5038 85.1075 29.8646C85.8295 29.2254 86.38 28.3376 86.7588 27.2013C87.1494 26.0649 87.3447 24.751 87.3447 23.2595C87.3447 21.7443 87.1494 20.4186 86.7588 19.2822C86.38 18.1459 85.8295 17.2581 85.1075 16.6189C84.3854 15.9797 83.5035 15.6601 82.4619 15.6601C81.3847 15.6601 80.4732 15.9797 79.7275 16.6189C78.9936 17.2581 78.4313 18.1459 78.0407 19.2822C77.6619 20.4186 77.4725 21.7443 77.4725 23.2595C77.4725 24.751 77.6619 26.0649 78.0407 27.2013C78.4313 28.3376 78.9936 29.2254 79.7275 29.8646C80.4732 30.5038 81.3847 30.8234 82.4619 30.8234ZM113.348 47.6558C110.756 47.6558 108.536 47.2948 106.69 46.5727C104.843 45.8506 103.393 44.8622 102.339 43.6075C101.286 42.3528 100.653 40.9323 100.44 39.3461L108.66 38.8845C108.814 39.4408 109.098 39.9262 109.513 40.3405C109.939 40.7548 110.489 41.0744 111.164 41.2993C111.85 41.5242 112.655 41.6366 113.579 41.6366C115.035 41.6366 116.236 41.2815 117.183 40.5713C118.142 39.8729 118.621 38.6478 118.621 36.8959V32.1018H118.319C117.976 32.9423 117.455 33.6939 116.757 34.3568C116.059 35.0197 115.189 35.5405 114.147 35.9193C113.117 36.2981 111.933 36.4875 110.596 36.4875C108.607 36.4875 106.784 36.0258 105.127 35.1025C103.482 34.1674 102.162 32.7233 101.167 30.7702C100.185 28.8052 99.6938 26.278 99.6938 23.1885C99.6938 20.0043 100.203 17.3824 101.221 15.3227C102.239 13.2512 103.57 11.7183 105.216 10.724C106.873 9.72967 108.654 9.23251 110.56 9.23251C111.993 9.23251 113.218 9.48109 114.236 9.97825C115.266 10.4636 116.112 11.0909 116.775 11.8604C117.438 12.6298 117.941 13.4288 118.284 14.2574H118.533V9.58762H127.18V36.9669C127.18 39.2751 126.6 41.2223 125.44 42.8085C124.279 44.3947 122.658 45.5961 120.574 46.4129C118.491 47.2415 116.082 47.6558 113.348 47.6558ZM113.614 30.1665C114.668 30.1665 115.567 29.8883 116.313 29.3319C117.059 28.7756 117.633 27.9766 118.035 26.9349C118.438 25.8933 118.639 24.6444 118.639 23.1885C118.639 21.7088 118.438 20.4363 118.035 19.371C117.645 18.2938 117.071 17.4652 116.313 16.8852C115.567 16.3052 114.668 16.0152 113.614 16.0152C112.537 16.0152 111.626 16.3111 110.88 16.903C110.134 17.4948 109.566 18.3293 109.175 19.4065C108.797 20.4719 108.607 21.7325 108.607 23.1885C108.607 24.6444 108.802 25.8933 109.193 26.9349C109.584 27.9766 110.146 28.7756 110.88 29.3319C111.626 29.8883 112.537 30.1665 113.614 30.1665ZM141.397 0.496714V36.8604H132.715V0.496714H141.397ZM159.672 37.3753C156.82 37.3753 154.358 36.813 152.286 35.6885C150.226 34.5521 148.64 32.9363 147.528 30.8412C146.427 28.7342 145.876 26.2306 145.876 23.3305C145.876 20.5133 146.433 18.0512 147.545 15.9442C148.658 13.8253 150.226 12.18 152.251 11.0081C154.275 9.82437 156.66 9.23251 159.406 9.23251C161.347 9.23251 163.123 9.53436 164.733 10.138C166.343 10.7417 167.734 11.6354 168.905 12.8192C170.077 14.0029 170.989 15.4648 171.64 17.2048C172.291 18.933 172.616 20.9157 172.616 23.153V25.3192H148.913V20.2765H164.538C164.526 19.3532 164.307 18.5306 163.881 17.8085C163.454 17.0864 162.868 16.5242 162.123 16.1217C161.389 15.7074 160.542 15.5003 159.584 15.5003C158.613 15.5003 157.743 15.7193 156.974 16.1572C156.204 16.5834 155.595 17.1693 155.145 17.915C154.695 18.6489 154.458 19.4835 154.435 20.4186V25.55C154.435 26.6627 154.654 27.6392 155.091 28.4797C155.529 29.3083 156.151 29.9534 156.956 30.415C157.761 30.8767 158.72 31.1075 159.832 31.1075C160.602 31.1075 161.3 31.001 161.927 30.7879C162.555 30.5748 163.093 30.2612 163.543 29.8469C163.993 29.4326 164.33 28.9236 164.555 28.3199L172.528 28.5507C172.196 30.3381 171.468 31.8947 170.344 33.2204C169.231 34.5344 167.769 35.5583 165.958 36.2922C164.147 37.0142 162.052 37.3753 159.672 37.3753Z" fill="#7A7A7A"/>
</svg>
