<svg width="317" height="61" viewBox="0 0 317 61" fill="none" xmlns="http://www.w3.org/2000/svg">
<rect width="26.9767" height="26.9767" fill="#7A7A7A"/>
<rect x="31.0233" width="26.9767" height="26.9767" fill="#7A7A7A"/>
<rect y="31.0234" width="26.9767" height="26.9767" fill="#7A7A7A"/>
<rect x="31.0233" y="31.0234" width="26.9767" height="26.9767" fill="#7A7A7A"/>
<path d="M79.7521 12.6364H90.6364L99.8693 35.1506H100.295L109.528 12.6364H120.413V49H111.854V26.6634H111.553L102.817 48.7692H97.348L88.6122 26.5391H88.3104V49H79.7521V12.6364ZM125.895 49V21.7273H134.577V49H125.895ZM130.245 18.549C129.026 18.549 127.978 18.1465 127.102 17.3416C126.226 16.5249 125.788 15.5424 125.788 14.3942C125.788 13.2578 126.226 12.2872 127.102 11.4822C127.978 10.6655 129.026 10.2571 130.245 10.2571C131.476 10.2571 132.523 10.6655 133.388 11.4822C134.264 12.2872 134.702 13.2578 134.702 14.3942C134.702 15.5424 134.264 16.5249 133.388 17.3416C132.523 18.1465 131.476 18.549 130.245 18.549ZM152.835 49.5149C149.958 49.5149 147.49 48.9231 145.43 47.7393C143.383 46.5556 141.808 44.9103 140.707 42.8033C139.607 40.6844 139.056 38.2341 139.056 35.4524C139.056 32.6589 139.607 30.2086 140.707 28.1016C141.82 25.9827 143.4 24.3314 145.448 23.1477C147.508 21.964 149.964 21.3722 152.817 21.3722C155.338 21.3722 157.534 21.8279 159.404 22.7393C161.286 23.6508 162.754 24.9411 163.808 26.6101C164.873 28.2673 165.435 30.2145 165.494 32.4517H157.38C157.214 31.0549 156.741 29.96 155.96 29.1669C155.19 28.3738 154.184 27.9773 152.941 27.9773C151.935 27.9773 151.053 28.2614 150.295 28.8295C149.538 29.3859 148.946 30.2145 148.52 31.3153C148.106 32.4044 147.898 33.7538 147.898 35.3636C147.898 36.9735 148.106 38.3348 148.52 39.4474C148.946 40.5483 149.538 41.3828 150.295 41.951C151.053 42.5073 151.935 42.7855 152.941 42.7855C153.746 42.7855 154.456 42.6139 155.072 42.2706C155.699 41.9273 156.214 41.4242 156.616 40.7614C157.019 40.0866 157.273 39.2699 157.38 38.3111H165.494C165.411 40.5601 164.849 42.5251 163.808 44.206C162.778 45.8868 161.328 47.1948 159.457 48.13C157.599 49.0533 155.391 49.5149 152.835 49.5149ZM169.938 49V21.7273H178.372V26.6989H178.656C179.153 24.8996 179.964 23.562 181.088 22.6861C182.213 21.7983 183.521 21.3544 185.012 21.3544C185.415 21.3544 185.829 21.384 186.255 21.4432C186.681 21.4905 187.078 21.5675 187.445 21.674V29.2202C187.03 29.0781 186.486 28.9657 185.811 28.8828C185.148 28.8 184.557 28.7585 184.036 28.7585C183.006 28.7585 182.077 28.9893 181.248 29.451C180.431 29.9008 179.786 30.5341 179.313 31.3509C178.851 32.1558 178.62 33.1027 178.62 34.1918V49H169.938ZM202.297 49.5149C199.433 49.5149 196.971 48.929 194.911 47.7571C192.863 46.5734 191.283 44.928 190.17 42.821C189.069 40.7022 188.519 38.246 188.519 35.4524C188.519 32.647 189.069 30.1908 190.17 28.0838C191.283 25.965 192.863 24.3196 194.911 23.1477C196.971 21.964 199.433 21.3722 202.297 21.3722C205.162 21.3722 207.618 21.964 209.666 23.1477C211.726 24.3196 213.306 25.965 214.407 28.0838C215.519 30.1908 216.076 32.647 216.076 35.4524C216.076 38.246 215.519 40.7022 214.407 42.821C213.306 44.928 211.726 46.5734 209.666 47.7571C207.618 48.929 205.162 49.5149 202.297 49.5149ZM202.351 42.9631C203.392 42.9631 204.274 42.6435 204.996 42.0043C205.718 41.3651 206.269 40.4773 206.648 39.3409C207.038 38.2045 207.233 36.8906 207.233 35.3991C207.233 33.884 207.038 32.5582 206.648 31.4219C206.269 30.2855 205.718 29.3977 204.996 28.7585C204.274 28.1193 203.392 27.7997 202.351 27.7997C201.273 27.7997 200.362 28.1193 199.616 28.7585C198.882 29.3977 198.32 30.2855 197.93 31.4219C197.551 32.5582 197.361 33.884 197.361 35.3991C197.361 36.8906 197.551 38.2045 197.93 39.3409C198.32 40.4773 198.882 41.3651 199.616 42.0043C200.362 42.6435 201.273 42.9631 202.351 42.9631ZM244.334 30.0547L236.362 30.2678C236.279 29.6996 236.054 29.1965 235.687 28.7585C235.32 28.3087 234.841 27.9595 234.249 27.7109C233.669 27.4505 232.994 27.3203 232.225 27.3203C231.218 27.3203 230.36 27.5215 229.65 27.924C228.952 28.3265 228.608 28.871 228.62 29.5575C228.608 30.0902 228.821 30.5518 229.259 30.9425C229.709 31.3331 230.508 31.6468 231.656 31.8835L236.912 32.8778C239.635 33.3987 241.659 34.2628 242.985 35.4702C244.322 36.6776 244.997 38.2756 245.009 40.2642C244.997 42.1345 244.441 43.7621 243.34 45.147C242.251 46.532 240.759 47.6091 238.865 48.3786C236.971 49.1361 234.805 49.5149 232.367 49.5149C228.472 49.5149 225.401 48.7159 223.151 47.1179C220.914 45.508 219.636 43.3537 219.316 40.6548L227.892 40.4418C228.082 41.4361 228.573 42.1937 229.366 42.7145C230.159 43.2353 231.171 43.4957 232.402 43.4957C233.515 43.4957 234.42 43.2886 235.119 42.8743C235.817 42.46 236.172 41.9096 236.184 41.223C236.172 40.6075 235.9 40.1162 235.367 39.7493C234.835 39.3705 234 39.0746 232.864 38.8615L228.105 37.956C225.371 37.4588 223.335 36.5414 221.997 35.2038C220.66 33.8544 219.997 32.138 220.009 30.0547C219.997 28.2318 220.482 26.6752 221.465 25.3849C222.447 24.0829 223.844 23.0885 225.655 22.402C227.466 21.7154 229.603 21.3722 232.065 21.3722C235.758 21.3722 238.67 22.1475 240.801 23.6982C242.931 25.237 244.109 27.3558 244.334 30.0547ZM262.014 49.5149C259.15 49.5149 256.688 48.929 254.628 47.7571C252.58 46.5734 251 44.928 249.887 42.821C248.786 40.7022 248.236 38.246 248.236 35.4524C248.236 32.647 248.786 30.1908 249.887 28.0838C251 25.965 252.58 24.3196 254.628 23.1477C256.688 21.964 259.15 21.3722 262.014 21.3722C264.879 21.3722 267.335 21.964 269.383 23.1477C271.442 24.3196 273.023 25.965 274.124 28.0838C275.236 30.1908 275.793 32.647 275.793 35.4524C275.793 38.246 275.236 40.7022 274.124 42.821C273.023 44.928 271.442 46.5734 269.383 47.7571C267.335 48.929 264.879 49.5149 262.014 49.5149ZM262.067 42.9631C263.109 42.9631 263.991 42.6435 264.713 42.0043C265.435 41.3651 265.986 40.4773 266.364 39.3409C266.755 38.2045 266.95 36.8906 266.95 35.3991C266.95 33.884 266.755 32.5582 266.364 31.4219C265.986 30.2855 265.435 29.3977 264.713 28.7585C263.991 28.1193 263.109 27.7997 262.067 27.7997C260.99 27.7997 260.079 28.1193 259.333 28.7585C258.599 29.3977 258.037 30.2855 257.646 31.4219C257.268 32.5582 257.078 33.884 257.078 35.3991C257.078 36.8906 257.268 38.2045 257.646 39.3409C258.037 40.4773 258.599 41.3651 259.333 42.0043C260.079 42.6435 260.99 42.9631 262.067 42.9631ZM295.741 21.7273V28.1193H278.199V21.7273H295.741ZM281.856 49V20.3423C281.856 18.2353 282.253 16.4893 283.046 15.1044C283.839 13.7076 284.94 12.666 286.348 11.9794C287.757 11.281 289.385 10.9318 291.231 10.9318C292.439 10.9318 293.575 11.0265 294.64 11.2159C295.717 11.3935 296.516 11.5533 297.037 11.6953L295.652 18.0518C295.333 17.9453 294.942 17.8565 294.48 17.7855C294.031 17.7145 293.605 17.679 293.202 17.679C292.184 17.679 291.486 17.9039 291.107 18.3537C290.728 18.8035 290.539 19.419 290.539 20.2003V49H281.856ZM315.312 21.7273V28.1193H298.107V21.7273H315.312ZM301.711 15.1932H310.394V40.424C310.394 40.9567 310.477 41.3887 310.643 41.7202C310.82 42.0398 311.075 42.2706 311.406 42.4126C311.738 42.5429 312.134 42.608 312.596 42.608C312.927 42.608 313.276 42.5784 313.643 42.5192C314.022 42.4482 314.306 42.389 314.496 42.3416L315.809 48.6094C315.395 48.7277 314.809 48.8757 314.052 49.0533C313.306 49.2308 312.412 49.3433 311.371 49.3906C309.335 49.4853 307.589 49.2486 306.133 48.6804C304.689 48.1004 303.582 47.2008 302.812 45.9815C302.055 44.7623 301.688 43.2294 301.711 41.3828V15.1932Z" fill="#7A7A7A"/>
</svg>
